<svg xmlns="http://www.w3.org/2000/svg" width="95" height="95" viewBox="0 0 105 95" fill="none">
  <g filter="url(#filter0_d_5_7473)">
    <circle cx="43.1552" cy="37.763" r="17.1552" fill="#004AAD"/>
  </g>
  <path d="M45.7285 32.0804C45.7285 34.7451 43.5683 36.9053 40.9036 36.9053C40.726 36.9053 40.582 36.7613 40.582 36.5836C40.582 33.9189 42.7421 31.7587 45.4069 31.7587C45.5845 31.7587 45.7285 31.9027 45.7285 32.0804Z" fill="#DDE4EE"/>
  <path d="M45.4069 42.9095C42.7422 42.9095 40.582 40.7494 40.582 38.0847C40.582 37.907 40.726 37.763 40.9037 37.763C43.5684 37.763 45.7286 39.9232 45.7286 42.5879C45.7286 42.7655 45.5846 42.9095 45.4069 42.9095Z" fill="#DDE4EE"/>
  <defs>
    <filter id="filter0_d_5_7473" x="0" y="0.607788" width="94.3105" height="94.3103" filterUnits="userSpaceOnUse" color-interpolation-filters="sRGB">
      <feFlood flood-opacity="0" result="BackgroundImageFix"/>
      <feColorMatrix in="SourceAlpha" type="matrix" values="0 0 0 0 0 0 0 0 0 0 0 0 0 0 0 0 0 0 127 0" result="hardAlpha"/>
      <feOffset dx="4" dy="10"/>
      <feGaussianBlur stdDeviation="15"/>
      <feComposite in2="hardAlpha" operator="out"/>
      <feColorMatrix type="matrix" values="0 0 0 0 0 0 0 0 0 0 0 0 0 0 0 0 0 0 0.1 0"/>
      <feBlend mode="normal" in2="BackgroundImageFix" result="effect1_dropShadow_5_7473"/>
      <feBlend mode="normal" in="SourceGraphic" in2="effect1_dropShadow_5_7473" result="shape"/>
    </filter>
  </defs>
</svg>