<svg width="93" height="92" viewBox="0 0 93 92" fill="none" xmlns="http://www.w3.org/2000/svg">
<g id="Icon/Feather Icon">
<path id="Vector" d="M73.3333 11.5H19.6667C15.4325 11.5 12 14.9325 12 19.1667V72.8333C12 77.0675 15.4325 80.5 19.6667 80.5H73.3333C77.5675 80.5 81 77.0675 81 72.8333V19.1667C81 14.9325 77.5675 11.5 73.3333 11.5Z" stroke="#212121" stroke-width="3" stroke-linecap="round" stroke-linejoin="round"/>
<path id="Vector_2" d="M33.0835 38.3333C36.2591 38.3333 38.8335 35.7589 38.8335 32.5833C38.8335 29.4076 36.2591 26.8333 33.0835 26.8333C29.9079 26.8333 27.3335 29.4076 27.3335 32.5833C27.3335 35.7589 29.9079 38.3333 33.0835 38.3333Z" stroke="#212121" stroke-width="3" stroke-linecap="round" stroke-linejoin="round"/>
<path id="Vector_3" d="M80.9998 57.4999L61.8332 38.3333L19.6665 80.4999" stroke="#212121" stroke-width="3" stroke-linecap="round" stroke-linejoin="round"/>
</g>
</svg>
